<svg width="24" height="24" viewBox="0 0 24 24" fill="none" xmlns="http://www.w3.org/2000/svg">
<g clip-path="url(#clip0_56_551)">
<path d="M10.0631 21.3254C11.4422 22.1 13.7837 21.9956 15.1151 21.1334C18.2878 19.0785 23.3783 14.9371 23.3783 9.50584C23.4121 9.17074 23.4587 8.83227 23.4587 8.48033C23.4587 4.98672 20.7557 2.1521 17.4207 2.1521C15.0332 2.1521 12.9895 3.61768 12.0088 5.72429C11.0288 3.61768 8.98452 2.1521 6.59751 2.1521C3.26256 2.1521 0.55957 4.98728 0.55957 8.48033C0.55957 8.84686 0.605093 9.20273 0.66347 9.55075C0.645796 9.55075 0.656507 9.59846 0.674181 9.67536C0.769511 10.1963 0.933929 10.6857 1.1428 11.1527C2.04362 13.5529 4.41134 18.1523 10.0631 21.3254Z" fill="#6D6D6D"/>
</g>
<defs>
<clipPath id="clip0_56_551">
<rect width="22.8991" height="24" fill="white" transform="translate(0.55957)"/>
</clipPath>
</defs>
</svg>
