<svg width="23" height="24" viewBox="0 0 23 24" fill="none" xmlns="http://www.w3.org/2000/svg">
<g clip-path="url(#clip0_56_556)">
<path d="M6.09616 20.3287L0.696899 20.9815V3.67043L6.09616 3.0177V20.3287Z" fill="#6D6D6D"/>
<path d="M16.8947 18.3705L11.4955 22.9396V5.62854L16.8947 1.05945V18.3705Z" fill="#6D6D6D"/>
<path d="M22.294 13.661C22.6535 13.661 22.945 13.3554 22.945 12.9787V3.67042C22.945 3.40426 22.7973 3.16234 22.5667 3.05087L17.1675 0.439933C17.1422 0.427699 17.1162 0.417292 17.09 0.408621C17.0842 0.406699 17.0783 0.405761 17.0724 0.404027C17.0504 0.397464 17.0283 0.391605 17.0059 0.387527C16.9944 0.385417 16.9827 0.384667 16.971 0.383214C16.9542 0.381105 16.9374 0.378996 16.9205 0.378292C16.9077 0.37773 16.8951 0.378292 16.8824 0.378574C16.8664 0.378902 16.8505 0.379371 16.8346 0.380964C16.8217 0.382277 16.8089 0.384152 16.7962 0.386308C16.7806 0.388839 16.765 0.391746 16.7496 0.395542C16.737 0.398542 16.7246 0.401964 16.712 0.405761C16.6967 0.410449 16.6816 0.415933 16.6665 0.421886C16.6545 0.426574 16.6426 0.431308 16.6309 0.436839C16.6156 0.443917 16.6009 0.452074 16.5861 0.460371C16.5752 0.466558 16.5642 0.472371 16.5536 0.479261C16.5505 0.481324 16.5471 0.482824 16.544 0.484839C16.5308 0.493652 16.5188 0.503964 16.5064 0.513714C16.4997 0.518964 16.4924 0.523136 16.4858 0.528714L11.4011 4.83151L6.369 2.39814C6.36712 2.39725 6.36511 2.39668 6.36318 2.39584C6.34015 2.38501 6.31662 2.37521 6.29256 2.36725C6.29046 2.36654 6.28831 2.36621 6.28626 2.36556C6.26425 2.35853 6.24193 2.35271 6.21935 2.34817C6.21076 2.34648 6.20217 2.34545 6.1935 2.34409C6.17717 2.34151 6.16076 2.33926 6.14421 2.338C6.13464 2.33725 6.12507 2.33696 6.11545 2.33664C6.09949 2.33617 6.08361 2.33621 6.0676 2.33696C6.05816 2.33739 6.04877 2.3379 6.03933 2.33875C6.03343 2.33931 6.02748 2.33917 6.02162 2.33992L0.622311 2.99256C0.293808 3.03235 0.0458984 3.32382 0.0458984 3.67042V20.9814C0.0458984 21.176 0.125106 21.3613 0.263753 21.4908C0.38366 21.6028 0.53805 21.6638 0.696867 21.6638C0.72169 21.6638 0.746601 21.6623 0.771468 21.6593L5.98928 21.0285L7.97569 21.9891C8.30214 22.1469 8.689 21.9976 8.83959 21.6554C8.99023 21.3132 8.84764 20.9078 8.5212 20.7499L6.74714 19.892V4.08395L10.8444 6.06526V22.9396C10.8444 22.9694 10.8468 22.9986 10.8504 23.0274C10.8513 23.0346 10.8524 23.0417 10.8535 23.0489C10.8574 23.0737 10.8623 23.098 10.8686 23.1218C10.8697 23.1258 10.8705 23.1299 10.8716 23.1339C10.8796 23.162 10.8892 23.1892 10.9004 23.2156C10.9023 23.2201 10.9045 23.2244 10.9065 23.2289C10.9165 23.2511 10.9275 23.2725 10.9395 23.2933C10.9426 23.2987 10.9455 23.304 10.9487 23.3092C10.9633 23.3329 10.979 23.3558 10.9962 23.3773C10.999 23.3808 11.0021 23.384 11.005 23.3874C11.0201 23.4055 11.0362 23.4227 11.053 23.4391C11.0583 23.4442 11.0636 23.4493 11.069 23.4543C11.0894 23.4729 11.1107 23.4907 11.1333 23.5066C11.1343 23.5073 11.1353 23.5078 11.1363 23.5085C11.1589 23.5242 11.1826 23.538 11.2071 23.5507C11.2097 23.5521 11.212 23.5539 11.2147 23.5553C11.2178 23.5568 11.221 23.5578 11.224 23.5593C11.2393 23.5667 11.2549 23.5733 11.2708 23.5794C11.277 23.5818 11.2832 23.5844 11.2894 23.5866C11.3057 23.5923 11.3224 23.5971 11.3391 23.6014C11.345 23.6029 11.3509 23.6049 11.3568 23.6062C11.3744 23.6102 11.3923 23.6131 11.4103 23.6155C11.4154 23.6162 11.4206 23.6175 11.4257 23.618C11.4483 23.6205 11.4711 23.6219 11.4942 23.6219C11.4945 23.6219 11.4949 23.622 11.4952 23.622H11.4953C11.4954 23.622 11.4956 23.622 11.4957 23.622C11.5158 23.622 11.5359 23.6207 11.5559 23.6188C11.5637 23.618 11.5713 23.6167 11.5791 23.6157C11.5911 23.614 11.603 23.6123 11.6149 23.61C11.6241 23.6082 11.6331 23.6061 11.6423 23.6038C11.6524 23.6014 11.6624 23.5986 11.6725 23.5956C11.6819 23.5928 11.6913 23.5899 11.7006 23.5867C11.7102 23.5833 11.7196 23.5796 11.7291 23.5757C11.7381 23.5721 11.7472 23.5686 11.756 23.5645C11.7661 23.5599 11.776 23.5547 11.7858 23.5494C11.7935 23.5454 11.8013 23.5417 11.8089 23.5374C11.8246 23.5284 11.8399 23.5185 11.8549 23.5081C11.8593 23.505 11.8636 23.5017 11.868 23.4985C11.8803 23.4895 11.8924 23.4804 11.9042 23.4705L16.9888 19.1676L22.0209 21.601C22.1078 21.643 22.2008 21.6638 22.2936 21.6638C22.4162 21.6638 22.5382 21.6276 22.6445 21.5562C22.8316 21.4308 22.9446 21.2141 22.9446 20.9814V16.24C22.9446 15.8633 22.6531 15.5577 22.2936 15.5577C21.9341 15.5577 21.6426 15.8633 21.6426 16.24V19.9154L17.5454 17.9341V2.12575L21.6426 4.10701V12.9787C21.643 13.3555 21.9344 13.661 22.294 13.661ZM1.34793 4.27853L5.44516 3.78315V19.7205L1.34793 20.2158V4.27853ZM12.1465 5.95468L16.2437 2.48743V18.0445L12.1465 21.5117V5.95468Z" fill="#6D6D6D"/>
</g>
<defs>
<clipPath id="clip0_56_556">
<rect width="22.8991" height="24" fill="white" transform="translate(0.0458984)"/>
</clipPath>
</defs>
</svg>
