<svg width="24" height="24" viewBox="0 0 24 24" fill="none" xmlns="http://www.w3.org/2000/svg">
<path opacity="0.4" d="M12.3853 22.01C17.6547 22.01 21.9266 17.5329 21.9266 12.01C21.9266 6.48716 17.6547 2.01001 12.3853 2.01001C7.11577 2.01001 2.84399 6.48716 2.84399 12.01C2.84399 17.5329 7.11577 22.01 12.3853 22.01Z" fill="#292D32"/>
<path d="M12.3854 6.93994C10.4103 6.93994 8.80737 8.61994 8.80737 10.6899C8.80737 12.7199 10.3244 14.3699 12.3376 14.4299C12.3663 14.4299 12.4044 14.4299 12.4235 14.4299C12.4426 14.4299 12.4712 14.4299 12.4903 14.4299C12.4998 14.4299 12.5094 14.4299 12.5094 14.4299C14.4367 14.3599 15.9538 12.7199 15.9633 10.6899C15.9633 8.61994 14.3604 6.93994 12.3854 6.93994Z" fill="#292D32"/>
<path d="M18.855 19.36C17.1566 21 14.8858 22.01 12.386 22.01C9.88617 22.01 7.61534 21 5.91699 19.36C6.14598 18.45 6.76617 17.62 7.67259 16.98C10.2774 15.16 14.5137 15.16 17.0994 16.98C18.0153 17.62 18.626 18.45 18.855 19.36Z" fill="#292D32"/>
</svg>
